<svg width="1000" height="1000" viewBox="0 0 1000 1000" fill="none" xmlns="http://www.w3.org/2000/svg">
<rect width="1000" height="1000" rx="500" fill="#006AD0"/>
<path fill-rule="evenodd" clip-rule="evenodd" d="M364.614 191.439C294.547 181.768 229.308 230.452 218.897 300.178L171.772 615.775C161.361 685.502 209.72 749.865 279.787 759.538L634.949 808.561C705.014 818.231 770.255 769.547 780.666 699.822L827.79 384.223C838.202 314.498 789.843 250.134 719.776 240.463L364.614 191.439ZM195.792 296.988C208.099 214.564 285.221 157.015 368.047 168.447L723.209 217.471C806.035 228.903 863.201 304.99 850.894 387.413L803.769 703.01C791.462 785.435 714.342 842.985 631.516 831.553L276.354 782.528C193.528 771.096 136.36 695.01 148.667 612.587L195.792 296.988Z" fill="white"/>
<path fill-rule="evenodd" clip-rule="evenodd" d="M536.022 400.382L595.009 427.572L594.648 676.458L655.516 676.546L655.937 387.731L536.022 327.208V400.382Z" fill="white"/>
<path fill-rule="evenodd" clip-rule="evenodd" d="M536.021 261.379L347.31 355.35L346.843 676.109L411.598 676.201L411.779 552.423L475.237 552.515L475.057 676.293L535.927 676.381L536.021 611.635V261.379ZM472.741 485.939L410.577 485.849L410.719 388.69L472.926 358.167L472.741 485.939Z" fill="white"/>
</svg>
